<svg xmlns="http://www.w3.org/2000/svg" width="1426" height="1080.001" >
  <path id="Subtraction_1" data-name="Subtraction 1" d="M1372.984,1080H0V0H1426V1.269A1246.586,1246.586,0,0,0,1276,596c0,21.268.54,42.786,1.6,63.957,1.057,21.009,2.659,42.246,4.763,63.121,2.089,20.725,4.728,41.656,7.845,62.21,3.1,20.413,6.746,41.011,10.85,61.222,4.079,20.083,8.714,40.323,13.779,60.158,5.035,19.721,10.631,39.578,16.631,59.018,5.967,19.333,12.5,38.781,19.406,57.8,6.874,18.922,14.311,37.935,22.105,56.511Z" fill="#3861fb"/>
</svg>
